<svg width="31" height="31" viewBox="0 0 31 31" fill="none" xmlns="http://www.w3.org/2000/svg">
<path d="M10.5512 2.85843C12.1355 3.47964 13.6669 4.30012 15.1103 5.30227C15.2746 5.41362 15.4623 5.47222 15.6501 5.47222C15.8379 5.47222 16.0256 5.41362 16.1899 5.30227C17.6333 4.30012 19.1647 3.47378 20.749 2.85257C21.1069 2.71192 21.3474 2.36028 21.3416 1.97349C21.3416 1.5867 21.101 1.24093 20.7372 1.10613C17.5688 -0.0952736 13.7314 -0.0952736 10.5688 1.10613C10.2109 1.24093 9.96448 1.59256 9.96448 1.97349C9.96448 2.35442 10.1874 2.71778 10.5512 2.85843Z" fill="#FFB548"/>
<path d="M24.1586 2.86366C23.8593 2.65854 23.4779 2.64096 23.1552 2.82263C21.4008 3.83064 19.7051 4.98516 18.1033 6.2569C17.892 6.42685 17.763 6.67885 17.7512 6.94844C17.7395 7.21802 17.8451 7.48175 18.0387 7.66928C21.3597 10.8281 25.9599 20.5155 27.016 24.9695C24.7277 21.1016 19.623 12.0002 16.2843 8.88827C15.9264 8.55422 15.3631 8.55422 15.0052 8.88827C11.6607 12.0002 6.57358 21.1075 4.28524 24.9813C5.34139 20.5273 9.9298 10.8281 13.2508 7.66928C13.4503 7.48175 13.5559 7.21802 13.5442 6.94844C13.5325 6.67885 13.4034 6.42685 13.1921 6.2569C11.5903 4.98516 9.88873 3.83064 8.14021 2.82263C7.82923 2.64096 7.4361 2.65854 7.13686 2.86366C3.05893 5.67085 0.623901 10.2831 0.623901 15.2059C0.623901 18.8043 1.92063 22.2737 4.28524 24.9813C7.11339 28.2983 11.25 30.2088 15.6448 30.2088C20.0396 30.2088 24.182 28.3042 27.016 24.9754C29.3689 22.2796 30.6656 18.8101 30.6656 15.2059C30.6656 10.2831 28.2306 5.67085 24.1586 2.86366Z" fill="#FFB548"/>
</svg>
