<svg width="31" height="31" viewBox="0 0 31 31" fill="none" xmlns="http://www.w3.org/2000/svg">
<path fill-rule="evenodd" clip-rule="evenodd" d="M15.7745 30.2087C24.0936 30.2087 30.8375 23.493 30.8375 15.2087C30.8375 6.92447 24.0936 0.20874 15.7745 0.20874C7.45551 0.20874 0.711609 6.92447 0.711609 15.2087C0.711609 16.7368 0.941045 18.2114 1.36748 19.6004C1.4763 19.6199 1.65224 19.6645 1.9086 19.7393L1.50828 13.4668C1.50828 13.3518 1.70304 13.2965 1.88147 13.2459C1.9794 13.218 2.07241 13.1916 2.12561 13.1575C2.27088 13.0661 5.26252 14.1539 5.42233 14.2261L9.24794 15.9493C10.2358 15.3284 11.4174 15.0781 12.5796 15.2465L16.0566 11.0251C16.1001 7.65558 18.8604 4.94074 22.255 4.93592C25.4269 4.96962 28.0564 7.37639 28.3566 10.51C28.6762 13.8987 26.1775 16.9024 22.7683 17.2249L16.9766 21.3405C16.6231 23.1456 15.3253 24.6233 13.5723 25.2106C10.8847 26.1155 7.96466 24.6811 7.05911 22.0047L5.04461 21.3405C4.89525 21.2932 2.1538 20.1575 1.41123 19.7404C3.34045 25.8097 9.04162 30.2087 15.7745 30.2087ZM25.3545 11.0972C25.3545 12.7986 23.9669 14.1778 22.2552 14.1778C20.5435 14.1778 19.1559 12.7986 19.1559 11.0972C19.1559 9.39577 20.5435 8.0165 22.2552 8.0165C23.9669 8.0165 25.3545 9.39577 25.3545 11.0972ZM24.3235 11.0972C24.3235 12.2323 23.3977 13.1526 22.2557 13.1526C21.1137 13.1526 20.1879 12.2323 20.1879 11.0972C20.1879 9.96203 21.1137 9.04181 22.2557 9.04181C23.3977 9.04181 24.3235 9.96203 24.3235 11.0972ZM10.5804 23.1119C10.9968 23.314 11.4568 23.4199 11.9217 23.4199C12.2752 23.4199 12.619 23.3622 12.958 23.2515C13.7376 22.9819 14.372 22.4187 14.7303 21.6823C15.4761 20.1467 14.8272 18.308 13.2873 17.5667C13.0258 17.4415 12.7207 17.5474 12.5948 17.8025C12.4689 18.0625 12.5754 18.3657 12.8321 18.4909C12.866 18.5053 12.8999 18.5198 12.9338 18.539C13.9507 19.0589 14.3429 20.296 13.82 21.3068C13.297 22.3176 12.0476 22.7075 11.0356 22.1877C10.7741 22.0625 10.469 22.1684 10.3431 22.4235C10.2172 22.6835 10.3237 22.9867 10.5804 23.1119Z" fill="#FFB548"/>
</svg>
